<svg width="300" height="400" viewBox="0 0 300 400" fill="none" xmlns="http://www.w3.org/2000/svg">
<g clip-path="url(#clip0_6_27)">
<path d="M270.037 222.094L269.989 222.172L269.944 222.251L184.641 370C169.245 396.666 130.755 396.666 115.359 370L30.0558 222.251L30.0102 222.172L29.9631 222.094C17.2911 201.043 10 176.388 10 150C10 72.6801 72.6801 10 150 10C227.32 10 290 72.6801 290 150C290 176.388 282.709 201.043 270.037 222.094Z" fill="#79DB75" stroke="black" stroke-width="20"/>
<path d="M122.53 212.531C136.199 198.863 129.867 170.37 108.388 148.891C86.9095 127.412 58.4171 121.081 44.7487 134.749C31.0804 148.417 37.412 176.91 58.8909 198.389C80.3697 219.868 108.862 226.199 122.53 212.531Z" fill="black"/>
<path d="M174.749 212.531C188.417 226.199 216.91 219.868 238.389 198.389C259.868 176.91 266.199 148.417 252.531 134.749C238.862 121.081 210.37 127.412 188.891 148.891C167.412 170.37 161.081 198.863 174.749 212.531Z" fill="black"/>
<path d="M195 200C203.284 200 210 193.284 210 185C210 176.716 203.284 170 195 170C186.716 170 180 176.716 180 185C180 193.284 186.716 200 195 200Z" fill="#F5F5F5"/>
<path d="M105 200C113.284 200 120 193.284 120 185C120 176.716 113.284 170 105 170C96.7157 170 90 176.716 90 185C90 193.284 96.7157 200 105 200Z" fill="#F5F5F5"/>
<path d="M120 300C130 315.092 156 336.222 180 300" stroke="#008272" stroke-width="20" stroke-linecap="round"/>
</g>
<defs>
<clipPath id="clip0_6_27">
<rect width="300" height="400" fill="white"/>
</clipPath>
</defs>
</svg>
